<svg id="Camada_1" data-name="Camada 1" xmlns="http://www.w3.org/2000/svg" viewBox="0 0 1000 50"><defs><style>.cls-1{fill:#828282;}</style></defs><polygon class="cls-1" points="3.08 0 0 0 0 43.13 3.08 43.13 8.51 43.13 30.27 43.13 30.27 35.29 8.51 35.29 8.51 25.63 26.86 25.63 26.86 17.8 8.51 17.8 8.51 7.83 30.27 7.83 30.27 0 8.51 0 3.08 0"/><rect class="cls-1" x="37.43" y="23.76" width="22.13" height="7.83"/><path class="cls-1" d="M77.31,21.37a7.1,7.1,0,0,1,5-1.65,10,10,0,0,1,3.33.58,8.55,8.55,0,0,1,2.76,1.62l5.51-5.1a11.1,11.1,0,0,0-3.12-2.67,15.58,15.58,0,0,0-4.2-1.68,21.08,21.08,0,0,0-5-.57,17.13,17.13,0,0,0-7.84,1.65,11.29,11.29,0,0,0-5,4.83A15.7,15.7,0,0,0,67,26v3.3A16.15,16.15,0,0,0,68.77,37a11.29,11.29,0,0,0,5,4.88,17.14,17.14,0,0,0,7.84,1.67,21.37,21.37,0,0,0,5-.56,15.84,15.84,0,0,0,4.2-1.65,11.79,11.79,0,0,0,3.14-2.62L88.4,33.35a7.86,7.86,0,0,1-2.73,1.74,9,9,0,0,1-3.36.62,7,7,0,0,1-5-1.67,6.28,6.28,0,0,1-1.75-4.76V26A6,6,0,0,1,77.31,21.37Z"/><path class="cls-1" d="M120.19,13.45a19.09,19.09,0,0,0-15.08,0A10.82,10.82,0,0,0,100.35,18a14.59,14.59,0,0,0-1.62,7.16v5a15,15,0,0,0,1.62,7.25A10.91,10.91,0,0,0,105.11,42a18.84,18.84,0,0,0,15.08,0,10.83,10.83,0,0,0,4.75-4.53,14.83,14.83,0,0,0,1.64-7.19V25.15A14.71,14.71,0,0,0,124.94,18,10.69,10.69,0,0,0,120.19,13.45Zm-2.14,16.81a5.44,5.44,0,0,1-1.43,4,5.38,5.38,0,0,1-4,1.44,5.32,5.32,0,0,1-4-1.44,5.55,5.55,0,0,1-1.4-4V25.15a5.45,5.45,0,0,1,1.41-4,5.33,5.33,0,0,1,4-1.43,5.41,5.41,0,0,1,4,1.43,5.33,5.33,0,0,1,1.43,4Z"/><path class="cls-1" d="M175.42,13.46a10.83,10.83,0,0,0-5.95-1.56,9.72,9.72,0,0,0-5.42,1.58,11.38,11.38,0,0,0-3.81,4.25,9.81,9.81,0,0,0-3.56-4.27,10.62,10.62,0,0,0-5.86-1.56,8.7,8.7,0,0,0-5,1.48,10.44,10.44,0,0,0-2.92,3.18V12.34h-8.52V43.13h8.52V24.53A4.77,4.77,0,0,1,144.15,21a5,5,0,0,1,3.65-1.26,5.25,5.25,0,0,1,3.95,1.47,5.83,5.83,0,0,1,1.4,4.17V43.13h8.52v-18h0a5.6,5.6,0,0,1,1.29-4,5.75,5.75,0,0,1,7.61.06,5.92,5.92,0,0,1,1.36,4.17V43.13h8.52V25.33a18.67,18.67,0,0,0-1.29-7.27A9.92,9.92,0,0,0,175.42,13.46Z"/><path class="cls-1" d="M230,13.46a10.87,10.87,0,0,0-6-1.56,9.75,9.75,0,0,0-5.42,1.58,11.38,11.38,0,0,0-3.81,4.25,9.81,9.81,0,0,0-3.56-4.27,10.62,10.62,0,0,0-5.86-1.56,8.58,8.58,0,0,0-5,1.48,10.48,10.48,0,0,0-2.93,3.18V12.34h-8.51V43.13h8.51V24.53A4.78,4.78,0,0,1,198.69,21a5,5,0,0,1,3.65-1.26,5.26,5.26,0,0,1,3.95,1.47,5.82,5.82,0,0,1,1.4,4.17V43.13h8.51v-18a5.64,5.64,0,0,1,1.33-4,4.9,4.9,0,0,1,3.77-1.41,5,5,0,0,1,3.84,1.47,6,6,0,0,1,1.36,4.17V43.13H235V25.33a18.49,18.49,0,0,0-1.29-7.27A9.87,9.87,0,0,0,230,13.46Z"/><path class="cls-1" d="M263.91,13.94a12.83,12.83,0,0,0-7.25-2A16.11,16.11,0,0,0,249,13.62a11.3,11.3,0,0,0-4.85,4.92,16.93,16.93,0,0,0-1.67,7.85v3.48a15.1,15.1,0,0,0,1.74,7.46,11.38,11.38,0,0,0,5.06,4.72,17.91,17.91,0,0,0,8,1.52,17.41,17.41,0,0,0,6.34-1.2,18.77,18.77,0,0,0,5.66-3.4l-5.57-4.71a10.75,10.75,0,0,1-6.43,2.23,7.29,7.29,0,0,1-5.17-1.75A5.86,5.86,0,0,1,250.3,31h19.76V29a24.45,24.45,0,0,0-1.57-9.27A12.59,12.59,0,0,0,263.91,13.94Zm-13.7,11.63A6.59,6.59,0,0,1,251.89,21a6.32,6.32,0,0,1,4.77-1.75,5.08,5.08,0,0,1,3.78,1.46,7,7,0,0,1,1.74,4.12l.1.72Z"/><path class="cls-1" d="M294.14,11.9a7.77,7.77,0,0,0-4.67,1.52,10.41,10.41,0,0,0-2.77,3.14V12.34h-9.18V43.13h9.18V25.7a6.43,6.43,0,0,1,1.41-4.4,5.06,5.06,0,0,1,4-1.6,6.71,6.71,0,0,1,2.08.3,3.85,3.85,0,0,1,1.52.87l4.94-6.57a8,8,0,0,0-2.85-1.79A10.13,10.13,0,0,0,294.14,11.9Z"/><path class="cls-1" d="M313.42,21.37a7,7,0,0,1,5-1.65,9.93,9.93,0,0,1,3.33.58,8.44,8.44,0,0,1,2.76,1.62l5.51-5.1a11.22,11.22,0,0,0-3.11-2.67,15.71,15.71,0,0,0-4.22-1.68,20.85,20.85,0,0,0-5-.57,17.1,17.1,0,0,0-7.84,1.65,11.44,11.44,0,0,0-5,4.83A15.8,15.8,0,0,0,303.13,26v3.3A16.14,16.14,0,0,0,304.87,37a11.44,11.44,0,0,0,5,4.88,17.12,17.12,0,0,0,7.84,1.67,21.34,21.34,0,0,0,5-.56,15.84,15.84,0,0,0,4.2-1.65A11.46,11.46,0,0,0,330,38.74l-5.51-5.39a7.86,7.86,0,0,1-2.73,1.74,9,9,0,0,1-3.36.62,7,7,0,0,1-5-1.67,6.23,6.23,0,0,1-1.74-4.76V26A6,6,0,0,1,313.42,21.37Z"/><path class="cls-1" d="M356.29,13.94a12.83,12.83,0,0,0-7.25-2,16.11,16.11,0,0,0-7.69,1.69,11.3,11.3,0,0,0-4.85,4.92,16.93,16.93,0,0,0-1.67,7.85v3.48a15.1,15.1,0,0,0,1.74,7.46,11.38,11.38,0,0,0,5.06,4.72,17.91,17.91,0,0,0,8,1.52,17.41,17.41,0,0,0,6.34-1.2A18.77,18.77,0,0,0,361.6,39L356,34.26a10.75,10.75,0,0,1-6.43,2.23,7.29,7.29,0,0,1-5.17-1.75,5.86,5.86,0,0,1-1.75-3.7h19.79V29a24.64,24.64,0,0,0-1.56-9.27A12.67,12.67,0,0,0,356.29,13.94Zm-13.7,11.63A6.64,6.64,0,0,1,344.27,21,6.38,6.38,0,0,1,349,19.28a5.07,5.07,0,0,1,3.78,1.46,7,7,0,0,1,1.74,4.12l.1.72Z"/><polygon class="cls-1" points="407.45 29.07 398.84 0 387.62 0 387.62 43.13 395.35 43.13 395.35 13.07 403.68 38.33 411.2 38.33 419.54 12.51 419.54 43.13 427.27 43.13 427.27 0 416.06 0 407.45 29.07"/><path class="cls-1" d="M456,13.25a17.18,17.18,0,0,0-7.18-1.35,20.24,20.24,0,0,0-7.06,1.17,13,13,0,0,0-5.1,3.28l5.29,5a10.78,10.78,0,0,1,3.14-1.58,11.68,11.68,0,0,1,3.57-.56,6.76,6.76,0,0,1,4.23,1.16,3.92,3.92,0,0,1,1.49,3.29v1.3h-7.84c-3.84,0-6.71.76-8.63,2.29S435,31,435,34.06s.86,5.59,2.57,7.16,4.29,2.36,7.76,2.36a17.44,17.44,0,0,0,4.49-.57,9.55,9.55,0,0,0,3.54-1.75,4.43,4.43,0,0,0,.95-1v2.9h7.74V23.35a11.66,11.66,0,0,0-1.57-6.19A10,10,0,0,0,456,13.25Zm-3.28,23a13.53,13.53,0,0,1-5.09.74,7.23,7.23,0,0,1-3.66-.73,2.44,2.44,0,0,1-1.25-2.24,2.62,2.62,0,0,1,1-2.21,4.75,4.75,0,0,1,2.89-.73h7.76V34A2.44,2.44,0,0,1,452.69,36.28Z"/><path class="cls-1" d="M487.13,11.9a7.82,7.82,0,0,0-4.68,1.52,10.5,10.5,0,0,0-2.83,3.14V12.34h-9.13V43.13h9.13V25.7A6.36,6.36,0,0,1,481,21.32a5.05,5.05,0,0,1,4-1.6,7.15,7.15,0,0,1,2.11.32,4.09,4.09,0,0,1,1.53.87l5-6.61a7.74,7.74,0,0,0-2.85-1.79A10.07,10.07,0,0,0,487.13,11.9Z"/><polygon class="cls-1" points="525.69 12.34 516.67 12.34 506.17 26.09 506.17 0 497.65 0 497.65 43.13 506.17 43.13 506.17 36.76 511.04 30.67 517.42 43.13 527.28 43.13 516.59 23.72 525.69 12.34"/><path class="cls-1" d="M553.19,13.46a10.63,10.63,0,0,0-5.87-1.56,8.07,8.07,0,0,0-4.7,1.46,9.8,9.8,0,0,0-2.78,3V0h-8.53V43.13h8.53V39.21a7.79,7.79,0,0,0,2.61,3,8.52,8.52,0,0,0,4.88,1.37A10.63,10.63,0,0,0,553.2,42a9.92,9.92,0,0,0,3.7-4.52,18.2,18.2,0,0,0,1.27-7.19v-5a18.84,18.84,0,0,0-1.27-7.27A9.91,9.91,0,0,0,553.19,13.46Zm-3.49,16.8a6.29,6.29,0,0,1-1.32,4.27,4.64,4.64,0,0,1-3.73,1.5,5.64,5.64,0,0,1-2.62-.55,4,4,0,0,1-1.63-1.63,5.52,5.52,0,0,1-.55-2.62V24.35a5.85,5.85,0,0,1,.55-2.67A3.91,3.91,0,0,1,542,20a5.4,5.4,0,0,1,2.62-.58A4.6,4.6,0,0,1,548.36,21a6.51,6.51,0,0,1,1.32,4.36Z"/><path class="cls-1" d="M583.7,30.87a4.89,4.89,0,0,1-1.29,3.61,5.09,5.09,0,0,1-3.69,1.25A5.27,5.27,0,0,1,575,34.5,4.46,4.46,0,0,1,573.68,31V12.34h-8.51v19q0,5.85,2.82,9c1.93,2.11,4.54,3.17,8,3.17a7.86,7.86,0,0,0,5.11-1.74,9.73,9.73,0,0,0,2.57-3.23v4.5h8.48V12.34H583.7Z"/><path class="cls-1" d="M617.05,11.9a8.61,8.61,0,0,0-5.12,1.45,10.65,10.65,0,0,0-2.8,3.21V12.34h-8.52V43.13h8.52V24.53A4.77,4.77,0,0,1,610.42,21a5.05,5.05,0,0,1,3.66-1.26A5.44,5.44,0,0,1,617.91,21a4.54,4.54,0,0,1,1.36,3.48V43.13h8.51V24.44q0-6-2.79-9.27A9.9,9.9,0,0,0,617.05,11.9Z"/><path class="cls-1" d="M652.61,11.9a8.5,8.5,0,0,0-5.13,1.45,10.36,10.36,0,0,0-2.83,3.21V12.34h-8.5V43.13h8.51V24.53A4.8,4.8,0,0,1,646,21a5.07,5.07,0,0,1,3.66-1.26A5.48,5.48,0,0,1,653.45,21a4.53,4.53,0,0,1,1.35,3.48V43.13h8.52V24.44q0-6-2.8-9.27A9.83,9.83,0,0,0,652.61,11.9Z"/><path class="cls-1" d="M689.13,12.34l-6.47,15.53-7.3-15.53h-8l11.51,24.6-1.74,4.13a3.1,3.1,0,0,1-1.33,1.57,4.7,4.7,0,0,1-2.28.51h-1.9V50h1.9a17.39,17.39,0,0,0,4.36-.47A6.84,6.84,0,0,0,680.81,48a8.27,8.27,0,0,0,2-2.88l14.34-32.79Z"/></svg>